<?xml version="1.0" standalone="no"?>
<!DOCTYPE svg PUBLIC "-//W3C//DTD SVG 20010904//EN"
 "http://www.w3.org/TR/2001/REC-SVG-20010904/DTD/svg10.dtd">
<svg version="1.0" xmlns="http://www.w3.org/2000/svg"
 width="320.000000pt" height="200.000000pt" viewBox="0 0 320.000000 200.000000"
 preserveAspectRatio="xMidYMid meet">
<metadata>
Created by potrace 1.16, written by Peter Selinger 2001-2019
</metadata>
<g transform="translate(0.000000,200.000000) scale(0.100000,-0.100000)"
fill="#000000" stroke="none">
<path d="M1066 1848 c-8 -18 -28 -73 -46 -123 -18 -49 -35 -93 -39 -96 -3 -4
-130 -1 -281 7 -353 17 -339 17 -347 -2 -3 -8 -2 -19 3 -24 5 -5 141 -15 301
-23 161 -7 294 -15 297 -18 3 -3 -47 -149 -113 -325 l-118 -319 -239 -5 c-231
-5 -239 -6 -239 -25 0 -19 8 -20 228 -23 176 -2 228 -5 224 -15 -107 -284
-149 -409 -139 -419 6 -6 17 -8 24 -5 8 2 50 102 94 221 l79 216 391 0 391 0
-70 -245 c-70 -245 -74 -278 -34 -262 8 3 37 87 72 209 32 111 64 224 72 250
l14 48 342 2 c334 3 342 3 342 23 0 20 -8 20 -332 23 -217 1 -333 6 -333 12 0
12 168 602 172 605 2 1 120 -4 263 -11 344 -17 335 -17 342 2 3 8 1 20 -4 25
-5 5 -135 14 -288 20 -154 7 -284 15 -288 19 -5 4 8 67 29 139 27 95 34 135
26 143 -24 24 -40 -5 -76 -134 -21 -73 -42 -137 -46 -142 -8 -8 -689 20 -698
29 -3 2 14 55 37 116 23 62 40 118 37 126 -10 24 -37 14 -50 -19z m319 -293
c182 -9 333 -17 336 -18 4 -1 -33 -139 -81 -307 l-87 -305 -387 -3 c-212 -1
-386 1 -386 5 0 5 53 151 117 325 101 272 121 318 138 318 11 0 169 -7 350
-15z"/>
</g>
</svg>
